<svg width="169" height="27" viewBox="0 0 169 27" fill="none" xmlns="http://www.w3.org/2000/svg">
<path d="M7.5 24.5L1 17.5L7.5 15L12 20L17.5 15L12 7.5V12.5L1 10L5.5 4.5" stroke="white" stroke-width="2" stroke-linecap="round" stroke-linejoin="round"/>
<path d="M42.588 21L42.566 9.78L37 19.13H35.988L30.422 9.846V21H28.31V5.6H30.114L36.538 16.424L42.874 5.6H44.678L44.7 21H42.588ZM59.3317 9.34L53.6777 22.166C53.1791 23.354 52.5924 24.19 51.9177 24.674C51.2577 25.158 50.4584 25.4 49.5197 25.4C48.9477 25.4 48.3904 25.3047 47.8477 25.114C47.3197 24.938 46.8797 24.674 46.5277 24.322L47.4297 22.738C48.0311 23.31 48.7277 23.596 49.5197 23.596C50.0331 23.596 50.4584 23.4567 50.7957 23.178C51.1477 22.914 51.4631 22.452 51.7417 21.792L52.1157 20.978L46.9677 9.34H49.1677L53.2377 18.668L57.2637 9.34H59.3317ZM72.7868 19.086V21H61.6108V5.6H72.4788V7.514H63.8108V12.244H71.5328V14.114H63.8108V19.086H72.7868ZM83.2193 21L79.8533 16.534L76.4433 21H74.0893L78.6873 15.038L74.3093 9.34H76.6633L79.8753 13.542L83.0653 9.34H85.3753L80.9753 15.038L85.6173 21H83.2193ZM92.6172 21.132C91.4292 21.132 90.3659 20.8753 89.4272 20.362C88.5032 19.8487 87.7772 19.1447 87.2492 18.25C86.7212 17.3407 86.4572 16.314 86.4572 15.17C86.4572 14.026 86.7212 13.0067 87.2492 12.112C87.7772 11.2027 88.5032 10.4987 89.4272 10C90.3659 9.48667 91.4292 9.23 92.6172 9.23C93.6732 9.23 94.6119 9.44267 95.4332 9.868C96.2692 10.2933 96.9145 10.9093 97.3692 11.716L95.7632 12.75C95.3965 12.1927 94.9419 11.7747 94.3992 11.496C93.8565 11.2173 93.2552 11.078 92.5952 11.078C91.8325 11.078 91.1432 11.2467 90.5272 11.584C89.9259 11.9213 89.4492 12.4053 89.0972 13.036C88.7599 13.652 88.5912 14.3633 88.5912 15.17C88.5912 15.9913 88.7599 16.7173 89.0972 17.348C89.4492 17.964 89.9259 18.4407 90.5272 18.778C91.1432 19.1153 91.8325 19.284 92.5952 19.284C93.2552 19.284 93.8565 19.1447 94.3992 18.866C94.9419 18.5873 95.3965 18.1693 95.7632 17.612L97.3692 18.624C96.9145 19.4307 96.2692 20.054 95.4332 20.494C94.6119 20.9193 93.6732 21.132 92.6172 21.132ZM110.972 9.34V21H108.97V19.24C108.544 19.8413 107.98 20.3107 107.276 20.648C106.586 20.9707 105.831 21.132 105.01 21.132C103.455 21.132 102.23 20.7067 101.336 19.856C100.441 18.9907 99.9936 17.722 99.9936 16.05V9.34H102.106V15.808C102.106 16.9373 102.377 17.7953 102.92 18.382C103.462 18.954 104.24 19.24 105.252 19.24C106.366 19.24 107.246 18.9027 107.892 18.228C108.537 17.5533 108.86 16.6 108.86 15.368V9.34H110.972ZM117.016 11.298C117.383 10.6233 117.926 10.11 118.644 9.758C119.363 9.406 120.236 9.23 121.262 9.23V11.276C121.145 11.2613 120.984 11.254 120.778 11.254C119.634 11.254 118.732 11.5987 118.072 12.288C117.427 12.9627 117.104 13.9307 117.104 15.192V21H114.992V9.34H117.016V11.298ZM127.295 21.132C126.342 21.132 125.425 21.0073 124.545 20.758C123.665 20.494 122.976 20.164 122.477 19.768L123.357 18.096C123.871 18.4627 124.494 18.756 125.227 18.976C125.961 19.196 126.701 19.306 127.449 19.306C129.297 19.306 130.221 18.778 130.221 17.722C130.221 17.37 130.097 17.0913 129.847 16.886C129.598 16.6807 129.283 16.534 128.901 16.446C128.535 16.3433 128.007 16.2333 127.317 16.116C126.379 15.9693 125.609 15.8007 125.007 15.61C124.421 15.4193 123.915 15.0967 123.489 14.642C123.064 14.1873 122.851 13.5493 122.851 12.728C122.851 11.672 123.291 10.8287 124.171 10.198C125.051 9.55267 126.232 9.23 127.713 9.23C128.491 9.23 129.268 9.32533 130.045 9.516C130.823 9.70667 131.461 9.96333 131.959 10.286L131.057 11.958C130.104 11.342 128.982 11.034 127.691 11.034C126.797 11.034 126.115 11.1807 125.645 11.474C125.176 11.7673 124.941 12.156 124.941 12.64C124.941 13.0213 125.073 13.322 125.337 13.542C125.601 13.762 125.924 13.9233 126.305 14.026C126.701 14.1287 127.251 14.246 127.955 14.378C128.894 14.5393 129.649 14.7153 130.221 14.906C130.808 15.082 131.307 15.39 131.717 15.83C132.128 16.27 132.333 16.886 132.333 17.678C132.333 18.734 131.879 19.5773 130.969 20.208C130.075 20.824 128.85 21.132 127.295 21.132ZM134.973 9.34H137.085V21H134.973V9.34ZM136.029 7.096C135.618 7.096 135.273 6.964 134.995 6.7C134.731 6.436 134.599 6.11333 134.599 5.732C134.599 5.35067 134.731 5.028 134.995 4.764C135.273 4.48533 135.618 4.346 136.029 4.346C136.439 4.346 136.777 4.478 137.041 4.742C137.319 4.99133 137.459 5.30667 137.459 5.688C137.459 6.084 137.319 6.42133 137.041 6.7C136.777 6.964 136.439 7.096 136.029 7.096ZM146.111 21.132C144.953 21.132 143.911 20.8753 142.987 20.362C142.063 19.8487 141.337 19.1447 140.809 18.25C140.296 17.3407 140.039 16.314 140.039 15.17C140.039 14.026 140.296 13.0067 140.809 12.112C141.337 11.2027 142.063 10.4987 142.987 10C143.911 9.48667 144.953 9.23 146.111 9.23C147.27 9.23 148.304 9.48667 149.213 10C150.137 10.4987 150.856 11.2027 151.369 12.112C151.897 13.0067 152.161 14.026 152.161 15.17C152.161 16.314 151.897 17.3407 151.369 18.25C150.856 19.1447 150.137 19.8487 149.213 20.362C148.304 20.8753 147.27 21.132 146.111 21.132ZM146.111 19.284C146.859 19.284 147.527 19.1153 148.113 18.778C148.715 18.426 149.184 17.942 149.521 17.326C149.859 16.6953 150.027 15.9767 150.027 15.17C150.027 14.3633 149.859 13.652 149.521 13.036C149.184 12.4053 148.715 11.9213 148.113 11.584C147.527 11.2467 146.859 11.078 146.111 11.078C145.363 11.078 144.689 11.2467 144.087 11.584C143.501 11.9213 143.031 12.4053 142.679 13.036C142.342 13.652 142.173 14.3633 142.173 15.17C142.173 15.9767 142.342 16.6953 142.679 17.326C143.031 17.942 143.501 18.426 144.087 18.778C144.689 19.1153 145.363 19.284 146.111 19.284ZM161.308 9.23C162.789 9.23 163.963 9.66267 164.828 10.528C165.708 11.3787 166.148 12.6327 166.148 14.29V21H164.036V14.532C164.036 13.4027 163.765 12.552 163.222 11.98C162.679 11.408 161.902 11.122 160.89 11.122C159.746 11.122 158.844 11.4593 158.184 12.134C157.524 12.794 157.194 13.7473 157.194 14.994V21H155.082V9.34H157.106V11.1C157.531 10.4987 158.103 10.0367 158.822 9.714C159.555 9.39133 160.384 9.23 161.308 9.23Z" fill="white"/>
</svg>
